<svg width="40" height="40" viewBox="0 0 40 40" fill="none" xmlns="http://www.w3.org/2000/svg">
<mask id="mask0_1763_1829" style="mask-type:alpha" maskUnits="userSpaceOnUse" x="2" y="2" width="36" height="36">
<path d="M12.5576 2.26547C10.666 2.35475 9.37408 2.65774 8.2451 3.10011C7.0764 3.55572 6.0857 4.16631 5.10016 5.15589C4.11346 6.14604 3.50751 7.1385 3.05536 8.30838C2.6176 9.44023 2.32095 10.7328 2.23742 12.6256C2.15448 14.5218 2.13547 15.1266 2.14471 19.9541C2.15392 24.7811 2.17522 25.387 2.26565 27.2838C2.35607 29.1749 2.65792 30.4663 3.10029 31.5958C3.55648 32.7646 4.16645 33.7547 5.15659 34.7408C6.14616 35.727 7.13919 36.3324 8.30961 36.7851C9.44031 37.2223 10.7334 37.5201 12.6256 37.603C14.5218 37.6866 15.1272 37.705 19.9535 37.6958C24.7821 37.6866 25.3875 37.6652 27.2837 37.5754C29.1753 37.485 30.4661 37.182 31.5962 36.7407C32.7649 36.2834 33.7556 35.6746 34.7411 34.6844C35.7267 33.6948 36.3326 32.7018 36.7848 31.5313C37.2226 30.4006 37.5204 29.1075 37.6027 27.2164C37.6857 25.3191 37.7053 24.7131 37.696 19.8862C37.6868 15.0586 37.665 14.4538 37.5751 12.5582C37.4852 10.6654 37.1823 9.37458 36.7405 8.24445C36.2837 7.07573 35.6743 6.08614 34.6847 5.09944C33.6951 4.11389 32.7021 3.50677 31.5317 3.05576C30.4004 2.61799 29.1079 2.31961 27.2157 2.23782C25.3195 2.15373 24.7141 2.1353 19.8861 2.14452C15.0592 2.15373 14.4538 2.17447 12.5576 2.26547ZM12.765 34.4033C11.0318 34.3278 10.0906 34.0398 9.46337 33.7985C8.63277 33.4771 8.04007 33.0917 7.41625 32.4725C6.7936 31.851 6.40709 31.26 6.08281 30.4311C5.83914 29.8039 5.54598 28.8638 5.46476 27.1306C5.37663 25.2569 5.35648 24.6947 5.34783 19.9478C5.33862 15.2021 5.35588 14.6399 5.43769 12.7644C5.51198 11.0323 5.80173 10.09 6.04248 9.46327C6.36388 8.63151 6.74807 8.03995 7.36844 7.41615C7.98993 6.79233 8.58091 6.40697 9.41035 6.08269C10.037 5.83787 10.9771 5.54698 12.7097 5.46463C14.5846 5.37591 15.1462 5.35691 19.8919 5.3477C24.6387 5.33847 25.2008 5.35519 27.0763 5.43756C28.8083 5.513 29.7507 5.79987 30.3768 6.04236C31.208 6.36377 31.8007 6.74682 32.4239 7.36834C33.0471 7.98985 33.4336 8.57968 33.7579 9.41086C34.0027 10.0358 34.2936 10.977 34.3754 12.7091C34.4647 14.584 34.4848 15.1462 34.4935 19.8919C34.5027 24.6388 34.4854 25.201 34.403 27.0753C34.3276 28.8085 34.0402 29.7503 33.7983 30.3781C33.4768 31.2082 33.0926 31.8009 32.4717 32.4247C31.8508 33.0462 31.2598 33.4339 30.4298 33.7582C29.8042 34.0024 28.8631 34.2938 27.1316 34.3762C25.2567 34.4643 24.6951 34.4845 19.9477 34.4932C15.202 34.5024 14.6405 34.4845 12.765 34.4033ZM27.2578 10.4172C27.2601 11.5945 28.2174 12.5478 29.3947 12.5455C30.5726 12.5432 31.5259 11.5865 31.5242 10.4091C31.5219 9.23172 30.5646 8.27786 29.3867 8.28017C28.2088 8.28247 27.2555 9.23979 27.2578 10.4172ZM10.7922 19.9374C10.802 24.9792 14.8968 29.0574 19.9374 29.0476C24.9785 29.0378 29.0589 24.9441 29.0491 19.9023C29.0393 14.8622 24.944 10.7818 19.9022 10.7916C14.8616 10.8013 10.7824 14.8968 10.7922 19.9374ZM13.9942 19.9311C13.9884 16.6588 16.6369 14.0005 19.9086 13.9947C23.1808 13.9884 25.8396 16.6357 25.846 19.9086C25.8523 23.1815 23.2039 25.8392 19.931 25.8455C16.6593 25.8519 14.0005 23.204 13.9942 19.9311Z" fill="#000008"/>
</mask>
<g mask="url(#mask0_1763_1829)">
<rect x="0.65332" y="0.653687" width="38.7111" height="38.7111" fill="url(#paint0_radial_1763_1829)"/>
<g filter="url(#filter0_f_1763_1829)">
<ellipse cx="7.89795" cy="-0.81944" rx="22.3333" ry="15.6333" transform="rotate(-14.9317 7.89795 -0.81944)" fill="#7334FF"/>
</g>
<g filter="url(#filter1_f_1763_1829)">
<circle cx="38.1238" cy="0.901827" r="21.0926" fill="#B202F5"/>
</g>
<g filter="url(#filter2_f_1763_1829)">
<circle cx="8.09812" cy="35.3944" r="11.9111" fill="#FFB401"/>
</g>
</g>
<defs>
<filter id="filter0_f_1763_1829" x="-50.9081" y="-53.8383" width="117.612" height="106.038" filterUnits="userSpaceOnUse" color-interpolation-filters="sRGB">
<feFlood flood-opacity="0" result="BackgroundImageFix"/>
<feBlend mode="normal" in="SourceGraphic" in2="BackgroundImageFix" result="shape"/>
<feGaussianBlur stdDeviation="18.425" result="effect1_foregroundBlur_1763_1829"/>
</filter>
<filter id="filter1_f_1763_1829" x="-27.6354" y="-64.8574" width="131.518" height="131.519" filterUnits="userSpaceOnUse" color-interpolation-filters="sRGB">
<feFlood flood-opacity="0" result="BackgroundImageFix"/>
<feBlend mode="normal" in="SourceGraphic" in2="BackgroundImageFix" result="shape"/>
<feGaussianBlur stdDeviation="22.3333" result="effect1_foregroundBlur_1763_1829"/>
</filter>
<filter id="filter2_f_1763_1829" x="-39.5463" y="-12.25" width="95.2889" height="95.2889" filterUnits="userSpaceOnUse" color-interpolation-filters="sRGB">
<feFlood flood-opacity="0" result="BackgroundImageFix"/>
<feBlend mode="normal" in="SourceGraphic" in2="BackgroundImageFix" result="shape"/>
<feGaussianBlur stdDeviation="17.8667" result="effect1_foregroundBlur_1763_1829"/>
</filter>
<radialGradient id="paint0_radial_1763_1829" cx="0" cy="0" r="1" gradientUnits="userSpaceOnUse" gradientTransform="translate(16.0385 37.6278) rotate(-61.8868) scale(20.5379)">
<stop stop-color="#FFD502"/>
<stop offset="0.869374" stop-color="#FF1154"/>
</radialGradient>
</defs>
</svg>
