<svg width="422" height="79" viewBox="0 0 422 79" fill="none" xmlns="http://www.w3.org/2000/svg">
<path fill-rule="evenodd" clip-rule="evenodd" d="M2 1V2C2 8.77107 5.8364 14.9575 11.9018 17.9672L14.6218 19.317C22.5733 23.2626 27.0717 30.4201 28.1172 38H33.0833V40H28.3125C28.8478 49.2748 24.2842 58.8124 14.6218 63.607L9.28257 66.2564C4.82159 68.47 2 73.02 2 78H0C0 72.2603 3.25205 67.0162 8.39357 64.4649L13.7328 61.8154C30.5619 53.4646 30.5619 29.4594 13.7328 21.1085L11.0128 19.7588C4.26685 16.4114 0 9.5308 0 2V1H2ZM420 2C420 8.84871 416.303 15.164 410.331 18.5165L410.82 19.3885L410.331 18.5165L408.267 19.6754C391.261 29.222 391.261 53.702 408.267 63.2486L412.881 65.8387C417.278 68.3072 420 72.9572 420 78H422C422 72.2341 418.887 66.9172 413.86 64.0947L409.246 61.5046C393.601 52.7222 393.601 30.2018 409.246 21.4193L411.31 20.2605C417.913 16.554 422 9.57187 422 2V1H421H420V2ZM53.4167 40L43.25 40V38L53.4167 38V40ZM73.75 40H63.5833V38H73.75V40ZM94.0833 40L83.9167 40V38L94.0833 38V40ZM114.417 40H104.25V38H114.417V40ZM134.75 40H124.583V38H134.75V40ZM155.083 40H144.917V38H155.083V40ZM175.417 40H165.25V38H175.417V40ZM195.75 40H185.583V38H195.75V40ZM216.083 40H205.917V38H216.083V40ZM236.417 40H226.25V38H236.417V40ZM256.75 40H246.583V38H256.75V40ZM277.083 40L266.917 40V38L277.083 38L277.083 40ZM297.417 40H287.25V38H297.417V40ZM317.75 40L307.583 40V38L317.75 38V40ZM338.083 40H327.917V38H338.083V40ZM358.417 40L348.25 40V38L358.417 38V40ZM378.75 40H368.583V38H378.75V40ZM394 40H388.917V38H394V40Z" fill="#686666" fill-opacity="0.3"/>
</svg>
