<svg width="422" height="76" viewBox="0 0 422 76" fill="none" xmlns="http://www.w3.org/2000/svg">
<path fill-rule="evenodd" clip-rule="evenodd" d="M0 0C0 7.5308 4.26685 14.4114 11.0128 17.7588L13.7328 19.1085C30.5619 27.4594 30.5619 51.4646 13.7328 59.8154L8.39357 62.4649C3.25205 65.0162 0 70.2603 0 76H2C2 71.02 4.82159 66.47 9.28257 64.2564L14.6218 61.607C24.2842 56.8124 28.8478 47.2748 28.3125 38H33.0833V36H28.1172C27.0717 28.4201 22.5733 21.2626 14.6218 17.317L11.9018 15.9672C5.8364 12.9575 2 6.77107 2 0H0ZM420 0C420 6.84871 416.303 13.164 410.331 16.5165L410.82 17.3885L410.331 16.5165L408.267 17.6754C391.261 27.222 391.261 51.702 408.267 61.2486L412.881 63.8387C417.278 66.3072 420 70.9572 420 76H422C422 70.2341 418.887 64.9172 413.86 62.0947L409.246 59.5046C393.601 50.7222 393.601 28.2018 409.246 19.4193L411.31 18.2605C417.913 14.554 422 7.57187 422 0H420ZM43.25 38L53.4167 38V36L43.25 36V38ZM63.5833 38H73.75V36H63.5833V38ZM83.9167 38L94.0833 38V36L83.9167 36V38ZM104.25 38H114.417V36H104.25V38ZM124.583 38H134.75V36H124.583V38ZM144.917 38H155.083V36H144.917V38ZM165.25 38H175.417V36H165.25V38ZM185.583 38H195.75V36H185.583V38ZM205.917 38H216.083V36H205.917V38ZM226.25 38H236.417V36H226.25V38ZM246.583 38H256.75V36H246.583V38ZM266.917 38L277.083 38L277.083 36L266.917 36V38ZM287.25 38H297.417V36H287.25V38ZM307.583 38L317.75 38V36L307.583 36V38ZM327.917 38H338.083V36H327.917V38ZM348.25 38L358.417 38V36L348.25 36V38ZM368.583 38H378.75V36H368.583V38ZM388.917 38H394V36H388.917V38Z" fill="#686666" fill-opacity="0.3"/>
</svg>
