<svg width="420" height="639" viewBox="0 0 420 639" fill="none" xmlns="http://www.w3.org/2000/svg">
<path d="M1 30C1 13.9838 13.9837 1 30 1H390C406.016 1 419 13.9837 419 30V427.633C419 435.944 414.514 443.607 407.267 447.675C390.261 457.222 390.261 481.702 407.267 491.249C414.514 495.317 419 502.98 419 511.291V609C419 625.016 406.016 638 390 638H30C13.9838 638 1 625.016 1 609V511.96C1 503.329 5.89026 495.444 13.6218 491.607C31.9323 482.521 31.9323 456.403 13.6218 447.317C5.89026 443.48 1 435.595 1 426.964V30Z" fill="#0C0614" stroke="#1E1728" stroke-width="2"/>
</svg>
